Coordinates
version=1
nRows=13
nColumns=22
inDegrees=yes

Units are S.I. units (second, meters, Newtons, ...)
If the header above contains a line with 'inDegrees', this indicates whether rotational values are in degrees (yes) or radians (no).

endheader
time	pelvis_tilt	pelvis_list	pelvis_rotation	pelvis_tx	pelvis_ty	pelvis_tz	hip_flexion_r	hip_adduction_r	hip_rotation_r	knee_angle_r	ankle_angle_r	subtalar_angle_r	hip_flexion_l	hip_adduction_l	hip_rotation_l	knee_angle_l	ankle_angle_l	subtalar_angle_l	lumbar_extension	lumbar_bending	lumbar_rotation
      0.01000000	      0.21746531	      2.45946741	    175.34345622	      0.05167057	      0.93525502	      1.18587990	      5.11419926	      1.35491706	    -12.03915821	    -20.52175159	     15.55291880	     -2.03691932	      8.27683132	     -3.19023500	     -4.20184056	    -26.84187952	     16.24265770	     -2.60990010	     -8.72696014	     -1.09525744	     -4.08335246
      0.02000000	      0.28485914	      2.46121595	    175.35781788	      0.05150422	      0.93523773	      1.18598228	      5.08216723	      1.37416947	    -12.02656892	    -20.35520775	     15.60411021	     -2.03583142	      8.28410229	     -3.17603035	     -4.16944677	    -26.74010954	     16.26274357	     -2.62741742	     -8.61288389	     -1.11424603	     -4.08590586
      0.03000000	      0.36488524	      2.46846454	    175.38466061	      0.05130155	      0.93521601	      1.18612860	      5.04555231	      1.39985050	    -12.01815587	    -20.16282851	     15.65925279	     -2.01000664	      8.30002767	     -3.16204604	     -4.11536670	    -26.63058438	     16.29327289	     -2.67455785	     -8.48202058	     -1.12803641	     -4.09600220
      0.04000000	      0.45438593	      2.48502850	    175.42781763	      0.05105090	      0.93518883	      1.18631597	      5.00393341	      1.43520798	    -12.01995169	    -19.95294272	     15.71398791	     -1.95800292	      8.32693384	     -3.15425316	     -4.04046557	    -26.52533687	     16.33402629	     -2.75739886	     -8.33853636	     -1.13310729	     -4.11663269
      0.05000000	      0.55650037	      2.51993405	    175.50553510	      0.05077273	      0.93513993	      1.18661721	      4.96619088	      1.47966180	    -12.08352216	    -19.73428713	     15.74373041	     -1.83597109	      8.38840271	     -3.15881645	     -3.93742531	    -26.45403143	     16.40854530	     -2.96456093	     -8.18797619	     -1.10550596	     -4.16188915
      0.06000000	      0.64418880	      2.54215297	    175.55772378	      0.05042647	      0.93512831	      1.18688759	      4.91063100	      1.51888485	    -12.06000302	    -19.51483721	     15.80223040	     -1.78790420	      8.40509846	     -3.15066247	     -3.85648776	    -26.34180272	     16.43568958	     -3.02828167	     -8.05067030	     -1.10119961	     -4.18044617
      0.07000000	      0.72937985	      2.59713226	    175.66812037	      0.05000738	      0.93510469	      1.18728969	      4.83668140	      1.58055992	    -12.13923243	    -19.28659930	     15.81418178	     -1.67966092	      8.44706613	     -3.16948778	     -3.72924490	    -26.28007283	     16.50965243	     -3.20922641	     -7.91885985	     -1.04953033	     -4.24433805
      0.08000000	      0.80876438	      2.63215151	    175.75002989	      0.04953592	      0.93509733	      1.18769151	      4.76029835	      1.62743761	    -12.12516745	    -19.06476156	     15.86085458	     -1.63741938	      8.45785655	     -3.16578549	     -3.62415762	    -26.18205319	     16.53637595	     -3.27202040	     -7.79569716	     -1.02093666	     -4.27252578
      0.09000000	      0.87098499	      2.69516656	    175.88340583	      0.04897847	      0.93510290	      1.18821470	      4.64739926	      1.69125805	    -12.21892584	    -18.82749179	     15.84596780	     -1.56743625	      8.46623670	     -3.18620505	     -3.48912309	    -26.11620316	     16.60346424	     -3.41919158	     -7.69478054	     -0.95116935	     -4.34464593
      0.10000000	      0.94267273	      2.73334397	    175.98486947	      0.04839861	      0.93509047	      1.18872559	      4.55473156	      1.73709441	    -12.21472769	    -18.60385170	     15.87131152	     -1.54363467	      8.46567120	     -3.18127331	     -3.37668229	    -26.02206534	     16.62969255	     -3.47140970	     -7.58677313	     -0.91160828	     -4.37746934
      0.11000000	      1.00450879	      2.78364340	    176.11557432	      0.04777390	      0.93507766	      1.18931747	      4.44166867	      1.78887224	    -12.26400220	    -18.37148916	     15.86315597	     -1.52841950	      8.46136164	     -3.18583364	     -3.24503334	    -25.93958807	     16.67459848	     -3.53886753	     -7.49674851	     -0.85277072	     -4.43749396
      0.12000000	      1.06443839	      2.82409870	    176.24570700	      0.04712091	      0.93505366	      1.18994757	      4.33209289	      1.82520115	    -12.32351924	    -18.15163085	     15.85309493	     -1.52261147	      8.45229639	     -3.17962824	     -3.12443973	    -25.85505740	     16.72083152	     -3.60254613	     -7.41571565	     -0.80192326	     -4.49557958
      0.13000000	      1.12513937	      2.85332151	    176.37486369	      0.04645196	      0.93500925	      1.19061790	      4.23266414	      1.84456272	    -12.38662439	    -17.95003839	     15.84777341	     -1.52038648	      8.44236796	     -3.16017765	     -3.01023114	    -25.76769314	     16.76822613	     -3.65552651	     -7.34189373	     -0.76028963	     -4.55465271
